<svg xmlns="http://www.w3.org/2000/svg" width="560" height="220" viewBox="0 0 560 220" fill="none" role="img" aria-label="Assinatura do medico">
  <rect width="560" height="220" fill="white"/>
  <path d="M30 170C120 210 180 120 250 95C292 80 318 62 344 30C358 13 383 8 397 24C409 37 406 60 394 75C373 102 341 116 328 141C322 152 322 171 337 174C353 178 370 160 379 145C393 123 415 69 454 63C469 61 484 68 493 80C510 103 501 143 500 167M22 182H538" stroke="#111111" stroke-width="2" stroke-linecap="round" stroke-linejoin="round"/>
</svg>
